<svg width="72" height="38" viewBox="0 0 72 38" fill="none" xmlns="http://www.w3.org/2000/svg">
<path d="M14.3535 0.5C18.0436 0.5 21.2607 1.2232 23.9863 2.69043C26.7054 4.15417 28.8103 6.19345 30.2891 8.80371C31.7681 11.4145 32.5 14.4219 32.5 17.8105C32.5 21.1707 31.751 24.2077 30.2432 26.9092L30.2412 26.9121C28.732 29.5831 26.5975 31.6848 23.8486 33.2119L23.8477 33.2109C21.123 34.7421 17.9529 35.5 14.3535 35.5H0.5V0.5H14.3535ZM10.5137 26.7812H13.8291C15.778 26.7812 17.3437 26.4425 18.5537 25.7979L18.5586 25.7959C19.7936 25.1536 20.7017 24.1957 21.292 22.9062L21.2939 22.9014C21.9214 21.5662 22.248 19.8763 22.248 17.8105C22.248 15.8415 21.922 14.2512 21.2998 13.0156L21.2979 13.0117C20.6779 11.7512 19.755 10.8214 18.5195 10.208L18.5127 10.2051L18.5068 10.2021C17.2958 9.55691 15.7447 9.21875 13.8291 9.21875H10.5137V26.7812Z" fill="white" stroke="white"/>
<path d="M18.3535 0.5C22.0436 0.5 25.2607 1.2232 27.9863 2.69043C30.7054 4.15417 32.8103 6.19345 34.2891 8.80371C35.7681 11.4145 36.5 14.4219 36.5 17.8105C36.5 21.1707 35.751 24.2077 34.2432 26.9092L34.2412 26.9121C32.732 29.5831 30.5975 31.6848 27.8486 33.2119L27.8477 33.2109C25.123 34.7421 21.9529 35.5 18.3535 35.5H4.5V0.5H18.3535ZM14.5137 26.7812H17.8291C19.778 26.7812 21.3437 26.4425 22.5537 25.7979L22.5586 25.7959C23.7936 25.1536 24.7017 24.1957 25.292 22.9062L25.2939 22.9014C25.9214 21.5662 26.248 19.8763 26.248 17.8105C26.248 15.8415 25.922 14.2512 25.2998 13.0156L25.2979 13.0117C24.6779 11.7512 23.755 10.8214 22.5195 10.208L22.5127 10.2051L22.5068 10.2021C21.2958 9.55691 19.7447 9.21875 17.8291 9.21875H14.5137V26.7812Z" stroke="white"/>
<path d="M22.3535 0.5C26.0436 0.5 29.2607 1.2232 31.9863 2.69043C34.7054 4.15417 36.8103 6.19345 38.2891 8.80371C39.7681 11.4145 40.5 14.4219 40.5 17.8105C40.5 21.1707 39.751 24.2077 38.2432 26.9092L38.2412 26.9121C36.732 29.5831 34.5975 31.6848 31.8486 33.2119L31.8477 33.2109C29.123 34.7421 25.9529 35.5 22.3535 35.5H8.5V0.5H22.3535ZM18.5137 26.7812H21.8291C23.778 26.7812 25.3437 26.4425 26.5537 25.7979L26.5586 25.7959C27.7936 25.1536 28.7017 24.1957 29.292 22.9062L29.2939 22.9014C29.9214 21.5662 30.248 19.8763 30.248 17.8105C30.248 15.8415 29.922 14.2512 29.2998 13.0156L29.2979 13.0117C28.6779 11.7512 27.755 10.8214 26.5195 10.208L26.5127 10.2051L26.5068 10.2021C25.2958 9.55691 23.7447 9.21875 21.8291 9.21875H18.5137V26.7812Z" stroke="white"/>
<path d="M26.3535 0.5C30.0436 0.5 33.2607 1.2232 35.9863 2.69043C38.7054 4.15417 40.8103 6.19345 42.2891 8.80371C43.7681 11.4145 44.5 14.4219 44.5 17.8105C44.5 21.1707 43.751 24.2077 42.2432 26.9092L42.2412 26.9121C40.732 29.5831 38.5975 31.6848 35.8486 33.2119L35.8477 33.2109C33.123 34.7421 29.9529 35.5 26.3535 35.5H12.5V0.5H26.3535ZM22.5137 26.7812H25.8291C27.778 26.7812 29.3437 26.4425 30.5537 25.7979L30.5586 25.7959C31.7936 25.1536 32.7017 24.1957 33.292 22.9062L33.2939 22.9014C33.9214 21.5662 34.248 19.8763 34.248 17.8105C34.248 15.8415 33.922 14.2512 33.2998 13.0156L33.2979 13.0117C32.6779 11.7512 31.755 10.8214 30.5195 10.208L30.5127 10.2051L30.5068 10.2021C29.2958 9.55691 27.7447 9.21875 25.8291 9.21875H22.5137V26.7812Z" stroke="white"/>
<path d="M40.334 0.5C43.5387 0.500028 46.4509 1.17287 49.0605 2.52734L49.5439 2.78125C51.9323 4.08351 53.908 5.86613 55.4658 8.125L55.7705 8.57715C57.2555 10.8562 58.1626 13.4647 58.4971 16.3926L58.5605 16.9492H48.0732L48.0078 16.5254C47.7966 15.1494 47.3312 13.9549 46.6191 12.9326L46.6152 12.9277V12.9268C45.8987 11.8679 45.0088 11.0586 43.9443 10.4893L43.9395 10.4863C42.9125 9.92134 41.7462 9.63379 40.4287 9.63379C39.2269 9.6338 38.1615 9.86207 37.2236 10.3076L37.2119 10.3125C36.273 10.7288 35.466 11.3373 34.7871 12.1426L34.5498 12.4541C34.0102 13.2018 33.5793 14.0841 33.2607 15.1064L33.2588 15.1094C32.8972 16.2392 32.7129 17.5187 32.7129 18.9521C32.7129 20.3852 32.898 21.6815 33.2607 22.8457C33.624 24.0115 34.1333 24.9949 34.7832 25.8047C35.465 26.6149 36.2774 27.2428 37.2236 27.6924C38.1615 28.1379 39.2269 28.3662 40.4287 28.3662C41.7462 28.3662 42.9125 28.0787 43.9395 27.5137C45.0086 26.9109 45.8827 26.0995 46.5664 25.0752L46.5684 25.0723C47.2854 24.0123 47.7677 22.796 48.0098 21.416L48.082 21.0029H58.5654L58.4961 21.5635C58.1315 24.5191 57.2098 27.1555 55.7246 29.4629L55.418 29.9229C53.7565 32.3 51.621 34.1664 49.0176 35.5186L49.0156 35.5195C46.4361 36.8432 43.5384 37.5 40.334 37.5C37.8639 37.5 35.5333 37.0389 33.3477 36.1133L33.3389 36.1094C31.1912 35.153 29.3025 33.8319 27.6748 32.1494L27.6709 32.1465C26.044 30.4317 24.7756 28.453 23.8662 26.2148C22.9537 23.9689 22.5 21.5463 22.5 18.9521C22.5 16.3579 22.9536 13.9498 23.8672 11.7344C24.7768 9.49637 26.0464 7.53392 27.6748 5.85059C29.3029 4.16755 31.1927 2.86199 33.3418 1.9375C35.5288 0.978177 37.8615 0.5 40.334 0.5Z" fill="white" stroke="white"/>
<path d="M44.334 0.5C47.5387 0.500028 50.4509 1.17287 53.0605 2.52734L53.5439 2.78125C55.9323 4.08351 57.908 5.86613 59.4658 8.125L59.7705 8.57715C61.2555 10.8562 62.1626 13.4647 62.4971 16.3926L62.5605 16.9492H52.0732L52.0078 16.5254C51.7966 15.1494 51.3312 13.9549 50.6191 12.9326L50.6152 12.9277V12.9268C49.8987 11.8679 49.0088 11.0586 47.9443 10.4893L47.9395 10.4863C46.9125 9.92134 45.7462 9.63379 44.4287 9.63379C43.2269 9.6338 42.1615 9.86207 41.2236 10.3076L41.2119 10.3125C40.273 10.7288 39.466 11.3373 38.7871 12.1426L38.5498 12.4541C38.0102 13.2018 37.5793 14.0841 37.2607 15.1064L37.2588 15.1094C36.8972 16.2392 36.7129 17.5187 36.7129 18.9521C36.7129 20.3852 36.898 21.6815 37.2607 22.8457C37.624 24.0115 38.1333 24.9949 38.7832 25.8047C39.465 26.6149 40.2774 27.2428 41.2236 27.6924C42.1615 28.1379 43.2269 28.3662 44.4287 28.3662C45.7462 28.3662 46.9125 28.0787 47.9395 27.5137C49.0086 26.9109 49.8827 26.0995 50.5664 25.0752L50.5684 25.0723C51.2854 24.0123 51.7677 22.796 52.0098 21.416L52.082 21.0029H62.5654L62.4961 21.5635C62.1315 24.5191 61.2098 27.1555 59.7246 29.4629L59.418 29.9229C57.7565 32.3 55.621 34.1664 53.0176 35.5186L53.0156 35.5195C50.4361 36.8432 47.5384 37.5 44.334 37.5C41.8639 37.5 39.5333 37.0389 37.3477 36.1133L37.3389 36.1094C35.1912 35.153 33.3025 33.8319 31.6748 32.1494L31.6709 32.1465C30.044 30.4317 28.7756 28.453 27.8662 26.2148C26.9537 23.9689 26.5 21.5463 26.5 18.9521C26.5 16.3579 26.9536 13.9498 27.8672 11.7344C28.7768 9.49637 30.0464 7.53392 31.6748 5.85059C33.3029 4.16755 35.1927 2.86199 37.3418 1.9375C39.5288 0.978177 41.8615 0.5 44.334 0.5Z" stroke="white"/>
<path d="M48.334 0.5C51.5387 0.500028 54.4509 1.17287 57.0605 2.52734L57.5439 2.78125C59.9323 4.08351 61.908 5.86613 63.4658 8.125L63.7705 8.57715C65.2555 10.8562 66.1626 13.4647 66.4971 16.3926L66.5605 16.9492H56.0732L56.0078 16.5254C55.7966 15.1494 55.3312 13.9549 54.6191 12.9326L54.6152 12.9277V12.9268C53.8987 11.8679 53.0088 11.0586 51.9443 10.4893L51.9395 10.4863C50.9125 9.92134 49.7462 9.63379 48.4287 9.63379C47.2269 9.6338 46.1615 9.86207 45.2236 10.3076L45.2119 10.3125C44.273 10.7288 43.466 11.3373 42.7871 12.1426L42.5498 12.4541C42.0102 13.2018 41.5793 14.0841 41.2607 15.1064L41.2588 15.1094C40.8972 16.2392 40.7129 17.5187 40.7129 18.9521C40.7129 20.3852 40.898 21.6815 41.2607 22.8457C41.624 24.0115 42.1333 24.9949 42.7832 25.8047C43.465 26.6149 44.2774 27.2428 45.2236 27.6924C46.1615 28.1379 47.2269 28.3662 48.4287 28.3662C49.7462 28.3662 50.9125 28.0787 51.9395 27.5137C53.0086 26.9109 53.8827 26.0995 54.5664 25.0752L54.5684 25.0723C55.2854 24.0123 55.7677 22.796 56.0098 21.416L56.082 21.0029H66.5654L66.4961 21.5635C66.1315 24.5191 65.2098 27.1555 63.7246 29.4629L63.418 29.9229C61.7565 32.3 59.621 34.1664 57.0176 35.5186L57.0156 35.5195C54.4361 36.8432 51.5384 37.5 48.334 37.5C45.8639 37.5 43.5333 37.0389 41.3477 36.1133L41.3389 36.1094C39.1912 35.153 37.3025 33.8319 35.6748 32.1494L35.6709 32.1465C34.044 30.4317 32.7756 28.453 31.8662 26.2148C30.9537 23.9689 30.5 21.5463 30.5 18.9521C30.5 16.3579 30.9536 13.9498 31.8672 11.7344C32.7768 9.49637 34.0464 7.53392 35.6748 5.85059C37.3029 4.16755 39.1927 2.86199 41.3418 1.9375C43.5288 0.978177 45.8615 0.5 48.334 0.5Z" stroke="white"/>
<path d="M52.334 0.5C55.5387 0.500028 58.4509 1.17287 61.0605 2.52734L61.5439 2.78125C63.9323 4.08351 65.908 5.86613 67.4658 8.125L67.7705 8.57715C69.2555 10.8562 70.1626 13.4647 70.4971 16.3926L70.5605 16.9492H60.0732L60.0078 16.5254C59.7966 15.1494 59.3312 13.9549 58.6191 12.9326L58.6152 12.9277V12.9268C57.8987 11.8679 57.0088 11.0586 55.9443 10.4893L55.9395 10.4863C54.9125 9.92134 53.7462 9.63379 52.4287 9.63379C51.2269 9.6338 50.1615 9.86207 49.2236 10.3076L49.2119 10.3125C48.273 10.7288 47.466 11.3373 46.7871 12.1426L46.5498 12.4541C46.0102 13.2018 45.5793 14.0841 45.2607 15.1064L45.2588 15.1094C44.8972 16.2392 44.7129 17.5187 44.7129 18.9521C44.7129 20.3852 44.898 21.6815 45.2607 22.8457C45.624 24.0115 46.1333 24.9949 46.7832 25.8047C47.465 26.6149 48.2774 27.2428 49.2236 27.6924C50.1615 28.1379 51.2269 28.3662 52.4287 28.3662C53.7462 28.3662 54.9125 28.0787 55.9395 27.5137C57.0086 26.9109 57.8827 26.0995 58.5664 25.0752L58.5684 25.0723C59.2854 24.0123 59.7677 22.796 60.0098 21.416L60.082 21.0029H70.5654L70.4961 21.5635C70.1315 24.5191 69.2098 27.1555 67.7246 29.4629L67.418 29.9229C65.7565 32.3 63.621 34.1664 61.0176 35.5186L61.0156 35.5195C58.4361 36.8432 55.5384 37.5 52.334 37.5C49.8639 37.5 47.5333 37.0389 45.3477 36.1133L45.3389 36.1094C43.1912 35.153 41.3025 33.8319 39.6748 32.1494L39.6709 32.1465C38.044 30.4317 36.7756 28.453 35.8662 26.2148C34.9537 23.9689 34.5 21.5463 34.5 18.9521C34.5 16.3579 34.9536 13.9498 35.8672 11.7344C36.7768 9.49637 38.0464 7.53392 39.6748 5.85059C41.3029 4.16755 43.1927 2.86199 45.3418 1.9375C47.5288 0.978177 49.8615 0.5 52.334 0.5Z" stroke="white"/>
</svg>
